<svg width="316" height="322" viewBox="0 0 316 322" fill="none" xmlns="http://www.w3.org/2000/svg">
<path d="M59.3514 16L6.5 61L65.8536 72C61.6456 52.1281 59.6762 32.9935 59.3514 16Z" fill="#FFE5E5"/>
<path d="M109.021 172C99.054 158.371 90.8693 143.847 84.2246 129L41.5 185L109.021 172Z" fill="#FFE5E5"/>
<path d="M216 247.05C194.321 240.603 175.424 231.477 159 220.401L142.5 285L216 247.05Z" fill="#FFE5E5"/>
<path d="M82.9047 126C75.735 109.422 70.4546 92.4914 66.7289 76L22.5 126H82.9047Z" fill="#E5FFFF"/>
<path d="M156 218.337C138.605 206.129 124.067 191.704 112 175.977L79 236L156 218.337Z" fill="#E5FFFF"/>
<path d="M281.5 257.416C259.112 256.555 238.838 253.39 220.5 248.339L216 316L281.5 257.416Z" fill="#E5FFFF"/>
<path d="M59.5 1C59.307 5.7713 59.2518 10.7848 59.3514 16M315.5 257C149.768 266.932 84.8941 161.917 65.8536 72M59.3514 16L6.5 61L65.8536 72M59.3514 16C59.6762 32.9935 61.6456 52.1281 65.8536 72M66.7289 76L22.5 126H82.9047C75.735 109.422 70.4546 92.4914 66.7289 76ZM84.2246 129L41.5 185L109.021 172C99.054 158.371 90.8693 143.847 84.2246 129ZM112 175.977L79 236L156 218.337C138.605 206.129 124.067 191.704 112 175.977ZM159 220.401L142.5 285L216 247.05C194.321 240.603 175.424 231.477 159 220.401ZM220.5 248.339L216 316L281.5 257.416C259.112 256.555 238.838 253.39 220.5 248.339Z" stroke="black" stroke-width="5"/>
</svg>
